<?xml version="1.0" encoding="iso-8859-1"?>
<!-- Generator: Adobe Illustrator 18.1.1, SVG Export Plug-In . SVG Version: 6.00 Build 0)  -->
<svg xmlns="http://www.w3.org/2000/svg" xmlns:xlink="http://www.w3.org/1999/xlink" version="1.1" id="Capa_1" x="0px" y="0px" viewBox="0 0 76 76" style="enable-background:new 0 0 76 76;" xml:space="preserve" width="512px" height="512px">
<g id="_x37_7_Essential_Icons_11_">
	<path id="Message" d="M74,4.992H2c-1.1,0-2,0.9-2,2v48c0,1.1,0.9,2,2,2h16v12c0,1.8,2.1,2.7,3.4,1.4l13.6-13.4h39c1.1,0,2-0.9,2-2   v-48C76,5.892,75.1,4.992,74,4.992z M72,52.992H34.2c-0.5,0-1,0.2-1.4,0.6L22,64.192v-9.2c0-1.1-0.9-2-2-2H4v-44h68V52.992z" fill="#9b4dca"/>
</g>
<g>
</g>
<g>
</g>
<g>
</g>
<g>
</g>
<g>
</g>
<g>
</g>
<g>
</g>
<g>
</g>
<g>
</g>
<g>
</g>
<g>
</g>
<g>
</g>
<g>
</g>
<g>
</g>
<g>
</g>
</svg>
